PathFileType	4	(X/Y/Z)	D:\Temporary Files\修改scale文件\BD0001.trc
DataRate	CameraRate	NumFrames	NumMarkers	Units	OrigDataRate	OrigDataStartFrame	OrigNumFrames
200.000000	200.000000	4	38	mm	200.000000	402	804
Frame#	Time	Top.Head			L.Acromium			R.Acromium			Sternum			L.ASIS			R.ASIS			V.Sacral			R.Knee.Lat			R.Knee.Med			L.Knee.Lat			L.Knee.Med			L.Ankle.Lat			L.Toe.Tip			R.Heel			R.Ankle.Med			R.Ankle.Lat			L.Toe.Med			L.Toe.Lat			L.Heel			L.Ankle.Med			L.Shank1			L.Shank2			R.Toe.Tip			R.Toe.Med			R.Toe.Lat			L.PSIS			R.PSIS			R.iliac.crest			L.iliac.crest			L.Shank3			L.Shank4			R.Shank4			L.Thigh4			R.Thigh4			R.Heel.Lat			R.Heel.Med			L.Heel.Lat			L.Heel.Med			
		X1	Y1	Z1	X2	Y2	Z2	X3	Y3	Z3	X4	Y4	Z4	X5	Y5	Z5	X6	Y6	Z6	X7	Y7	Z7	X8	Y8	Z8	X9	Y9	Z9	X10	Y10	Z10	X11	Y11	Z11	X12	Y12	Z12	X13	Y13	Z13	X14	Y14	Z14	X15	Y15	Z15	X16	Y16	Z16	X17	Y17	Z17	X18	Y18	Z18	X19	Y19	Z19	X20	Y20	Z20	X21	Y21	Z21	X22	Y22	Z22	X23	Y23	Z23	X24	Y24	Z24	X25	Y25	Z25	X26	Y26	Z26	X27	Y27	Z27	X28	Y28	Z28	X29	Y29	Z29	X30	Y30	Z30	X31	Y31	Z31	X32	Y32	Z32	X33	Y33	Z33	X34	Y34	Z34	X35	Y35	Z35	X36	Y36	Z36	X37	Y37	Z37	X38	Y38	Z38	
403	2.01	924.958787223789	1692.89616123497	-993.783272864302	933.784506145368	1410.61949328585	-818.148208459447	1092.44521254728	1399.65506136376	-1090.65252152709	900.838971003501	1358.98048921292	-1019.72653520859	804.706979405634	912.087130973225	-931.632574443031	927.417676953036	931.592860040659	-1133.7415752265	1008.98472697696	964.273528243328	-952.890971498502	1003.37895043853	475.012613419563	-1165.52517597721	948.39730702894	454.611744215938	-1065.41606564535	850.027104971552	476.077790524876	-845.778249385184	886.105406372916	456.960968534784	-949.783293873349	907.063710815186	102.874264363763	-808.542666263729	727.476659978665	56.7772745667859	-868.486805151312	1104.92018089442	34.3194205702401	-1104.18895136426	990.210869652861	103.209102405393	-1115.25848184691	1060.70481464119	104.93279561636	-1173.96212149631	786.801831318438	45.4164871760452	-908.126929641563	793.46763859586	46.3617706686939	-802.771444320804	1001.35880878531	31.4533000480421	-814.541108954044	927.185542677989	104.576212363992	-894.503729276594	831.341446621535	388.330095898147	-837.045015308007	829.472327329168	307.667705884816	-819.04588396863	876.109577552457	54.5187726307145	-1277.16746093109	900.008217265725	44.529660881462	-1205.39703478856	986.475459262349	37.4513738336242	-1275.02258514585	975.675558628805	963.136720155649	-910.12668355918	1030.22662024163	964.679173968524	-998.993544725234	970.50415435029	988.699018839918	-1122.47518056417	834.988381908454	989.640884876917	-899.582273750247	883.642008059111	395.974266241144	-801.043581668506	885.482445762743	309.841651974277	-784.661842544439	1062.30854182392	317.363118023276	-1187.24082194726	838.065965441663	603.9188327043	-833.522272313171	1031.11131976919	568.24091033506	-1148.94183386313	1098.28066708267	32.1452183269849	-1172.67712315393	1024.79548254876	25.2953365144357	-1100.98785106087	935.315284168288	22.2937485458357	-780.050516789376	956.486892765339	27.3225814058347	-883.60585659845
404	2.015	924.983352484336	1692.90066729462	-993.813758389116	933.810575172925	1410.62824160698	-818.152046712283	1092.45218859093	1399.65496019392	-1090.66740824727	900.850232424436	1358.98451579167	-1019.73029397306	804.707900227636	912.093659154474	-931.608155396264	927.414193526881	931.595711040959	-1133.7224576851	1008.98787460046	964.279328869944	-952.87689567429	1003.37583223232	475.017257580853	-1165.5084181227	948.386885346646	454.609015923533	-1065.40394579568	850.028338483808	476.077958903126	-845.756193505236	886.101154367796	456.966307411314	-949.770507633923	907.066015274546	102.878570271869	-808.537927530507	727.477696023734	56.7881245323244	-868.493090356684	1104.91576384987	34.324024404116	-1104.18614746433	990.208691623174	103.207856162325	-1115.25906046531	1060.71198188954	104.942533211275	-1173.95753923853	786.803516316642	45.4209297200165	-908.121759277748	793.466337912632	46.3587559686056	-802.770805501414	1001.3590913204	31.45370910019	-814.542423754843	927.180629944612	104.576467931824	-894.503017016411	831.344663411857	388.329344569815	-837.024375003146	829.470212224008	307.668283847887	-819.037256935527	876.104168768975	54.5229530078946	-1277.17057217181	900.008058659609	44.5253241199375	-1205.39273832676	986.470895144815	37.4553830494395	-1275.02300255046	975.679596747553	963.140601769815	-910.105445362445	1030.22125788558	964.675801555285	-998.974401487829	970.500637181488	988.694399345406	-1122.45866350234	834.99059409623	989.649347532165	-899.56255899027	883.639003724561	395.973759145943	-801.035245369233	885.479258883121	309.841253574086	-784.655231750679	1062.30379099859	317.366171681373	-1187.22795976336	838.017282876213	603.977312249511	-833.457860046145	1031.10674013866	568.240074289881	-1148.91516714654	1098.27993874697	32.1498159465328	-1172.676068531	1024.7926574069	25.2934884597753	-1100.98727349022	935.3137750613	22.2973193109653	-780.049525953185	956.487423430502	27.3252121522654	-883.604646025644
405	2.02	925.008549233732	1692.90619429036	-993.844260985381	933.835637426105	1410.63851684079	-818.156298116236	1092.45959057281	1399.65470794893	-1090.68134090118	900.860614407756	1358.98890738248	-1019.73400857018	804.70817858732	912.101021106627	-931.583910237732	927.41127837931	931.597833600538	-1133.70274298411	1008.99208815929	964.283841615319	-952.863828591965	1003.37275929004	475.0239367971	-1165.49283722311	948.375189686468	454.60611548749	-1065.39271526965	850.025173027966	476.073725566802	-845.736983522465	886.096259331317	456.970429549702	-949.759425659613	907.067871984794	102.883211792424	-808.534291953231	727.469752551158	56.7950891324502	-868.510035742871	1104.91139586851	34.3290460895575	-1104.18403968387	990.207397075076	103.20546768591	-1115.25934084571	1060.71533304015	104.940376606204	-1173.95104114089	786.811180467969	45.426701370266	-908.107399368258	793.464430844328	46.3562664231574	-802.771183066559	1001.35814269547	31.453727133856	-814.544989885543	927.1707550397	104.575718313121	-894.502586399236	831.346823722276	388.3291182058	-837.00526392323	829.466721019317	307.669140943655	-819.031332808878	876.096775380336	54.5262201214681	-1277.17396296665	900.009027607468	44.5197791672514	-1205.38735129218	986.466168285974	37.45824055633	-1275.0233707251	975.683787616182	963.143953317576	-910.085922253775	1030.21318635963	964.670315874897	-998.956838892843	970.4963943299	988.689501921334	-1122.44198709112	834.993406968688	989.658172244762	-899.543478916708	883.634226929014	395.971648682464	-801.029208306379	885.474808563786	309.839767032198	-784.649961438983	1062.29869319616	317.369302656512	-1187.21597291201	837.966046028677	604.038233846472	-833.390862610666	1031.10383028843	568.237986090614	-1148.88736855617	1098.27870428831	32.1531261532867	-1172.67531974116	1024.7884088236	25.2914190415352	-1100.98737985055	935.312367341368	22.3002151090611	-780.049823650453	956.487526607913	27.3272198380496	-883.603495308849
406	2.025	925.034643163116	1692.91184188752	-993.8742668677	933.858839139592	1410.65001253093	-818.162095158568	1092.46835143224	1399.65389992589	-1090.69416353325	900.870258750479	1358.99312330241	-1019.73810048001	804.707900993071	912.108954006115	-931.559824298324	927.408929089359	931.599419156222	-1133.68304023052	1008.99637811515	964.286158865357	-952.850778180733	1003.36914261647	475.032087393338	-1165.47892116956	948.363027044331	454.603222967132	-1065.38273671939	850.019027562363	476.064505591967	-845.71968839202	886.090383569087	456.972930849143	-949.750241828306	907.06767530162	102.886422073924	-808.533335623803	727.450068704224	56.7959085436282	-868.541116215143	1104.90799128858	34.3330379582698	-1104.18231500543	990.206403316769	103.202308641971	-1115.25910847889	1060.71330333337	104.927237123744	-1173.94385517839	786.827090265821	45.4327034427985	-908.080278061495	793.462488698942	46.3545789769997	-802.772615181592	1001.35581305097	31.4529556140954	-814.548375743247	927.158635785089	104.575008003166	-894.502599898802	831.348108610701	388.330027108615	-836.987283598907	829.461604397188	307.670413174355	-819.028022898357	876.087787059332	54.5281776354412	-1277.17804877101	900.010987771606	44.5141323460012	-1205.38273362506	986.46168757757	37.4597444164486	-1275.02319900326	975.688202800386	963.146906794941	-910.068383926554	1030.2051562727	964.663468961294	-998.940480202459	970.492333722927	988.683813038379	-1122.42432637296	834.996652943385	989.66743705457	-899.524779239661	883.627035527003	395.968338597976	-801.024992717631	885.46950780353	309.836514747379	-784.645990689536	1062.29343649645	317.373153873656	-1187.20513419305	837.923939103156	604.087505203544	-833.332673735607	1031.10207400917	568.235896987822	-1148.86067445292	1098.27794455591	32.1558443117332	-1172.67481351634	1024.78354617633	25.2896829910659	-1100.9883682716	935.309986005449	22.301388643332	-780.051396906093	956.487101974182	27.3293259556551	-883.603193490345
